<svg xmlns="http://www.w3.org/2000/svg" width="1483.39" height="1537.97" viewBox="0 0 1483.39 1537.97"><path fill-rule="evenodd" d="M1415.16 1077.51 739.14 691.84l-670.3 385.79 670.99 386.57z" style="fill:#49efd7"/><path d="M801.54 1231.23c0 7.64-6.19 13.84-13.83 13.84s-13.83-6.2-13.83-13.84c0-7.63 6.19-13.83 13.83-13.83s13.83 6.2 13.83 13.83m-91.21 0c0 7.64-6.2 13.84-13.84 13.84-7.63 0-13.83-6.2-13.83-13.84 0-7.63 6.2-13.83 13.83-13.83 7.64 0 13.84 6.2 13.84 13.83m182.26 0c0 7.64-6.19 13.84-13.83 13.84s-13.83-6.2-13.83-13.84c0-7.63 6.19-13.83 13.83-13.83s13.83 6.2 13.83 13.83m91.17 0c0 7.64-6.19 13.84-13.83 13.84s-13.83-6.2-13.83-13.84c0-7.63 6.19-13.83 13.83-13.83s13.83 6.2 13.83 13.83m-182.22 77.13c0 7.64-6.19 13.83-13.83 13.83s-13.83-6.19-13.83-13.83 6.19-13.83 13.83-13.83 13.83 6.19 13.83 13.83m-91.21 0c0 7.64-6.2 13.83-13.84 13.83-7.63 0-13.83-6.19-13.83-13.83s6.2-13.83 13.83-13.83c7.64 0 13.84 6.19 13.84 13.83m182.26 0c0 7.64-6.19 13.83-13.83 13.83s-13.83-6.19-13.83-13.83 6.19-13.83 13.83-13.83 13.83 6.19 13.83 13.83m91.17 0c0 7.64-6.19 13.83-13.83 13.83s-13.83-6.19-13.83-13.83 6.19-13.83 13.83-13.83 13.83 6.19 13.83 13.83m-182.22 76.78c0 7.64-6.19 13.83-13.83 13.83s-13.83-6.19-13.83-13.83 6.19-13.83 13.83-13.83 13.83 6.19 13.83 13.83m-91.21 0c0 7.64-6.2 13.83-13.84 13.83-7.63 0-13.83-6.19-13.83-13.83s6.2-13.83 13.83-13.83c7.64 0 13.84 6.19 13.84 13.83m182.26 0c0 7.64-6.19 13.83-13.83 13.83s-13.83-6.19-13.83-13.83 6.19-13.83 13.83-13.83 13.83 6.19 13.83 13.83m-182.26-384.97c0 7.64-6.2 13.83-13.84 13.83-7.63 0-13.83-6.19-13.83-13.83s6.2-13.83 13.83-13.83c7.64 0 13.84 6.19 13.84 13.83m182.26 0c0 7.64-6.19 13.83-13.83 13.83s-13.83-6.19-13.83-13.83 6.19-13.83 13.83-13.83 13.83 6.19 13.83 13.83m91.17 0c0 7.64-6.19 13.83-13.83 13.83s-13.83-6.19-13.83-13.83 6.19-13.83 13.83-13.83 13.83 6.19 13.83 13.83m-91.17 77.13c0 7.63-6.19 13.83-13.83 13.83s-13.83-6.2-13.83-13.83c0-7.64 6.19-13.84 13.83-13.84s13.83 6.2 13.83 13.84m-91.05 76.78c0 7.64-6.19 13.83-13.83 13.83s-13.83-6.19-13.83-13.83 6.19-13.83 13.83-13.83 13.83 6.19 13.83 13.83m-91.21 0c0 7.64-6.2 13.83-13.84 13.83-7.63 0-13.83-6.19-13.83-13.83s6.2-13.83 13.83-13.83c7.64 0 13.84 6.19 13.84 13.83m182.26 0c0 7.64-6.19 13.83-13.83 13.83s-13.83-6.19-13.83-13.83 6.19-13.83 13.83-13.83 13.83 6.19 13.83 13.83m91.17 0c0 7.64-6.19 13.83-13.83 13.83s-13.83-6.19-13.83-13.83 6.19-13.83 13.83-13.83 13.83 6.19 13.83 13.83m-547.01-153.91c0 7.64-6.2 13.83-13.83 13.83-7.64 0-13.83-6.19-13.83-13.83s6.19-13.83 13.83-13.83c7.63 0 13.83 6.19 13.83 13.83m182.22 0c0 7.64-6.19 13.83-13.83 13.83s-13.83-6.19-13.83-13.83 6.19-13.83 13.83-13.83 13.83 6.19 13.83 13.83m-182.22 77.13c0 7.63-6.2 13.83-13.83 13.83-7.64 0-13.83-6.2-13.83-13.83 0-7.64 6.19-13.84 13.83-13.84 7.63 0 13.83 6.2 13.83 13.84m0 76.78c0 7.64-6.2 13.83-13.83 13.83-7.64 0-13.83-6.19-13.83-13.83s6.19-13.83 13.83-13.83c7.63 0 13.83 6.19 13.83 13.83m-91.22 0c0 7.64-6.19 13.83-13.83 13.83-7.63 0-13.83-6.19-13.83-13.83s6.2-13.83 13.83-13.83c7.64 0 13.83 6.19 13.83 13.83m182.27 0c0 7.64-6.19 13.83-13.83 13.83s-13.83-6.19-13.83-13.83 6.19-13.83 13.83-13.83 13.83 6.19 13.83 13.83m91.17 0c0 7.64-6.19 13.83-13.83 13.83s-13.83-6.19-13.83-13.83 6.19-13.83 13.83-13.83 13.83 6.19 13.83 13.83m-455.9-76.78c0 7.63-6.19 13.83-13.83 13.83s-13.83-6.2-13.83-13.83c0-7.64 6.19-13.84 13.83-13.84s13.83 6.2 13.83 13.84m91.05 76.78c0 7.64-6.19 13.83-13.83 13.83s-13.83-6.19-13.83-13.83 6.19-13.83 13.83-13.83 13.83 6.19 13.83 13.83m0-153.91c0 7.64-6.19 13.83-13.83 13.83s-13.83-6.19-13.83-13.83 6.19-13.83 13.83-13.83 13.83 6.19 13.83 13.83m0 77.13c0 7.63-6.19 13.83-13.83 13.83s-13.83-6.2-13.83-13.83c0-7.64 6.19-13.84 13.83-13.84s13.83 6.2 13.83 13.84m182.63 153.93c0 7.64-6.2 13.84-13.83 13.84-7.64 0-13.83-6.2-13.83-13.84 0-7.63 6.19-13.83 13.83-13.83 7.63 0 13.83 6.2 13.83 13.83m-91.22 0c0 7.64-6.19 13.84-13.83 13.84-7.63 0-13.83-6.2-13.83-13.84 0-7.63 6.2-13.83 13.83-13.83 7.64 0 13.83 6.2 13.83 13.83m182.27 0c0 7.64-6.19 13.84-13.83 13.84s-13.83-6.2-13.83-13.84c0-7.63 6.19-13.83 13.83-13.83s13.83 6.2 13.83 13.83m91.17 0c0 7.64-6.19 13.84-13.83 13.84s-13.83-6.2-13.83-13.84c0-7.63 6.19-13.83 13.83-13.83s13.83 6.2 13.83 13.83m-91.17 77.13c0 7.64-6.19 13.83-13.83 13.83s-13.83-6.19-13.83-13.83 6.19-13.83 13.83-13.83 13.83 6.19 13.83 13.83m91.17 0c0 7.64-6.19 13.83-13.83 13.83s-13.83-6.19-13.83-13.83 6.19-13.83 13.83-13.83 13.83 6.19 13.83 13.83m0 76.78c0 7.64-6.19 13.83-13.83 13.83s-13.83-6.19-13.83-13.83 6.19-13.83 13.83-13.83 13.83 6.19 13.83 13.83m610.54-384.97c0 7.64 6.19 13.83 13.83 13.83s13.83-6.19 13.83-13.83-6.19-13.83-13.83-13.83-13.83 6.19-13.83 13.83m-91.06 0c0 7.64 6.2 13.83 13.84 13.83 7.63 0 13.83-6.19 13.83-13.83s-6.2-13.83-13.83-13.83c-7.64 0-13.84 6.19-13.84 13.83m-91.17 0c0 7.64 6.2 13.83 13.84 13.83 7.63 0 13.83-6.19 13.83-13.83s-6.2-13.83-13.83-13.83c-7.64 0-13.84 6.19-13.84 13.83m0 77.13c0 7.63 6.2 13.83 13.84 13.83 7.63 0 13.83-6.2 13.83-13.83 0-7.64-6.2-13.84-13.83-13.84-7.64 0-13.84 6.2-13.84 13.84m0 76.78c0 7.64 6.2 13.83 13.84 13.83 7.63 0 13.83-6.19 13.83-13.83s-6.2-13.83-13.83-13.83c-7.64 0-13.84 6.19-13.84 13.83m182.23.02c0 7.63 6.19 13.83 13.83 13.83s13.83-6.2 13.83-13.83c0-7.64-6.19-13.83-13.83-13.83s-13.83 6.19-13.83 13.83m-91.06 0c0 7.63 6.2 13.83 13.84 13.83 7.63 0 13.83-6.2 13.83-13.83 0-7.64-6.2-13.83-13.83-13.83-7.64 0-13.84 6.19-13.84 13.83m-91.17 0c0 7.63 6.2 13.83 13.84 13.83 7.63 0 13.83-6.2 13.83-13.83 0-7.64-6.2-13.83-13.83-13.83-7.64 0-13.84 6.19-13.84 13.83m91.17 77.12c0 7.64 6.2 13.83 13.84 13.83 7.63 0 13.83-6.19 13.83-13.83s-6.2-13.83-13.83-13.83c-7.64 0-13.84 6.19-13.84 13.83m-91.17 0c0 7.64 6.2 13.83 13.84 13.83 7.63 0 13.83-6.19 13.83-13.83s-6.2-13.83-13.83-13.83c-7.64 0-13.84 6.19-13.84 13.83M1321 1076.96c0 7.64 6.19 13.83 13.83 13.83s13.83-6.19 13.83-13.83-6.19-13.83-13.83-13.83-13.83 6.19-13.83 13.83m-91.17 0c0 7.64 6.19 13.83 13.83 13.83s13.83-6.19 13.83-13.83-6.19-13.83-13.83-13.83-13.83 6.19-13.83 13.83M682.68 922.99c0 7.64 6.19 13.83 13.83 13.83s13.83-6.19 13.83-13.83c0-7.63-6.19-13.83-13.83-13.83s-13.83 6.2-13.83 13.83m-91.17 0c0 7.64 6.19 13.83 13.83 13.83s13.83-6.19 13.83-13.83c0-7.63-6.19-13.83-13.83-13.83s-13.83 6.2-13.83 13.83m273.06 0c0 7.64 6.19 13.83 13.83 13.83s13.83-6.19 13.83-13.83c0-7.63-6.19-13.83-13.83-13.83s-13.83 6.2-13.83 13.83m.37-77.08c0 7.63 6.2 13.83 13.83 13.83 7.64 0 13.83-6.2 13.83-13.83 0-7.64-6.19-13.83-13.83-13.83-7.63 0-13.83 6.19-13.83 13.83m182.93 77.29c0 7.64 6.2 13.83 13.83 13.83 7.64 0 13.83-6.19 13.83-13.83s-6.19-13.83-13.83-13.83c-7.63 0-13.83 6.19-13.83 13.83M591.4 768.98c0 7.64 6.19 13.83 13.83 13.83s13.83-6.19 13.83-13.83-6.19-13.83-13.83-13.83-13.83 6.19-13.83 13.83m91.37 0c0 7.64 6.2 13.83 13.83 13.83 7.64 0 13.83-6.19 13.83-13.83s-6.19-13.83-13.83-13.83c-7.63 0-13.83 6.19-13.83 13.83m181.98 0c0 7.64 6.19 13.83 13.83 13.83s13.83-6.19 13.83-13.83-6.19-13.83-13.83-13.83-13.83 6.19-13.83 13.83M409.35 923c0 7.64 6.2 13.83 13.83 13.83 7.64 0 13.83-6.19 13.83-13.83s-6.19-13.83-13.83-13.83c-7.63 0-13.83 6.19-13.83 13.83m364.42-154.02c0 7.64 6.19 13.83 13.83 13.83 7.63 0 13.83-6.19 13.83-13.83s-6.2-13.83-13.83-13.83c-7.64 0-13.83 6.19-13.83 13.83" style="fill:#e3fcf8"/><path fill-rule="evenodd" d="m739.81 71.22-.67 620.62 679.39 387.59-5.62-626.9z" style="fill:#fef3c3"/><path d="M1412.91 756.16v25.29l-675.54-384.2-.05-26.2zm0-191.91v25.28L737.37 205.34l-.05-26.2zm-.96-64.21v25.28L736.41 141.13l-.05-26.2zm0 127.8v25.28L736.41 268.93l-.05-26.2zm.96 64.98v25.29L737.37 333.92l-.05-26.2zm0 127.84v25.29l-675.54-384.2-.05-26.19zm0 63.96v25.29l-675.54-384.2-.05-26.2zm0 64.09V974L737.37 589.8l-.05-26.19zm0 63.87v25.29l-675.54-384.2-.05-26.2z" style="fill:#ffe882"/><path fill-rule="evenodd" d="m739.81 71.22-.67 620.62-670.3 385.79-.96-623.14z" style="fill:#ffbcd3"/><path d="M127.32 385.04h58.83l-.26 624.42-58.54 34.49zm112.36-63.43h58.83l-.52 624.13-58.58 33.72zm112.52-69.75h58.83l-.26 624.42-58.54 34.49zm112.68-60.4h58.83l-.51 624.66-58.54 33.7zm111.86-64.28h58.82l-.25 624.42-58.71 33.79zm112.61-70.57 50.46-.47-.25 624.43-50.13 2.14z" style="fill:#fa92ab"/><path fill-rule="evenodd" d="m234.69 761.11 24 .11v3.97l34.23-.06.26-67.05 71.03.15.55 63.53 23.47-.06-.04 3.63 34.52-.01-.15-164-4.3-.11.31-23.28-54.24-.38.12 67.07-71.18-.03v-43.57l-3.97-.2.12-23.12-54.71.17zm-.1-276.87 22.99 3.53 2.26 2.96 105.96 15.8-.14 10.2-39.28 5.28-91.76-13.92.31 46.58 22.76 3.5 1.37 2.03 81.61 13.27 81.85-15.27.04-70.17-4.65-1.36.57-21.05-126.64-18.87.15-2.37 47.57-6.9 82.33 12.14.3-28.3-4.09-1.27.44-21.42-93.74-13.58-90.08 15.23zm-.15 453.49 21.7 2.95 2.91 2.05 83.05 14.28 80.45-14.87.63-133.4-4.52-.66.46-21.47-93.53-16.4-91.05 16.56zm58.36-105.59 46.09-6.75 26.44 3.06-.13 68.61-37.43 5.45-35.05-4.73zm-7.45 130.32-50.8-.08.72 148.91 57.53 36.59 4.67-4.26 8.52 6.78 29.56-19.25 25.7 16.81 4.67-3.96 8.36 6.1 48.63-30.06-.49-132.86-4-.75.14-23.73-50.43-.01.18 122.06-7 4.86-4.77-2.79.14-99.85-4.92-1.18.15-23.42-50.98.17.43 120.62-8.55 6.17-3.82-2.12.35-100.42-3.76-1.04z" style="fill:#fff"/><path d="M575.23 907.71v130.95h170.01V907.71zm-49.58-105.22h272.07c32 0 53.39 29.89 52.65 55.27v231.62c.62 25.93-20.51 54.14-52.75 54.22H519.74c-28.02-1.03-49.24-27.18-49.65-47.92V852.17c-.12-18.06 17.18-49.26 55.56-49.68M739.84 0 0 421.99v686.46l739.84 429.52 743.55-429.58v-684.6zm0 75.54 670.8 382.22v617.74l-670.8 386.35-666.2-386.81V455.7zM244.46 518.99v27.24l83.63 13.13 81.05-14.58v-70.6l-131.67-19.72.02-23.52 49.31-7.49 82.34 12.65v-28.73l-82.34-12.69-82.34 13.67v68.21l130.75 19.48.31 28.73-48.72 7.18zm82.34 261.2-82.34 14.22v134.77l82.34 14.49 82.34-14.52V794.83zm-48.48 38.46 49.05-7.32 47.65 7.18.07 86.84-48 7.33-48.64-7.5zm130.94-67.04-35.28-.08.06-67.06-94.4-.01-.34 67.15-34.84.36-.14-164.91h35.34l-.03 67.12h94.35v-67.09l35.16-.05zm-82.46 363.4 34.2 21.83 48.14-30.81V971.7h-31.79v118.12l-16.53 10.33-18.07-10.81.04-117.64-31.88.07v116.98l-18.07 11.62-16.53-9.84V971.65l-31.85.05v135.09l47.9 30.01zm844.99-439.66-214.44-.32c1.5-1.07 3.22-2.37 4.57-4.01L1064.4 546.7l102.82 124.25c1.31 1.54 3.11 2.99 4.57 4.4m-284.27-.32h-54.98c17.46-30.96 22.19-62.22 22.22-95.94 1.62-83.39-73.86-187.61-188.99-188.57-106.37-4.36-203.54 80.7-200.67 203.1 1.48 93.86 81.13 187.24 201.14 187.24h345.79l-.04 8.35c-100.95 29.64-143.7 114.61-142.48 184.02.24 110.66 93.41 189 193.92 188.53 92.9 1.39 195.22-72.69 195.66-188.23 2.41-70.61-45.38-157.61-142.13-184.05l-.05-8.62h114.71c13.3 0 47.27-16.06 47.27-52.86.09-23.83-14.04-44.12-40.88-51.19 19.27-10 31.12-47.69 11.44-71.56l-71.07-86.21h32.92c13.19 0 47.82-15.03 47.82-52.98 1.15-30.18-26.45-52.99-51.15-52.99H923.45c-34.26 0-54.26 25.58-54.26 52.99 0 30.72 25.32 52.98 50.66 52.98h30.14l-65.11 78.99c-24.66 29.91-14.4 57.95-3.8 70.53 1.97 2.41 4.15 4.53 6.44 6.47m-137.88-89.74c0 49.52-40.15 89.67-89.67 89.67s-89.67-40.15-89.67-89.67 40.15-89.67 89.67-89.67 89.67 40.15 89.67 89.67m404.13 387.02c0 47.68-40.15 86.32-89.67 86.32s-89.67-38.64-89.67-86.32c0-47.67 40.15-86.32 89.67-86.32s89.67 38.65 89.67 86.32" style="fill:#000"/><path d="M20.8 432.14v666.02l719.04 417.36 723.59-416.78V434.39L739.84 22.09zM739.84 59.65l685.26 389.51-.2 634.56-685.06 394.7-680.95-395.28.61-635.76zm326.8 460.13c-1.26-1.28-3.45-1.55-4.8.02l-113.7 137.75c-12.22 14.76-34.58 14.13-48.37 2.7-11.2-10.94-15.03-27.88-4.72-43.15l96.35-117.49-67.17.15c-23.64-.21-35.93-16.74-36.1-34.65.38-14.78 12.72-32.22 34.84-32.53l279.22-.06c22.82-.34 36.86 13.89 37.62 33.43-.08 17.94-14.79 32.77-29.2 33.22l-73.52.36 94.26 114.63c14.89 18.02 7.58 37.45-2.73 46.17-14.35 12.07-35.09 12.39-50.88-7.08zM750.75 888.15c8.9.16 13.7 6.85 13.33 13.77l-.05 141.31c-.07 11.02-7.12 14.03-13.37 14.1l-181.1.4c-7.04.35-13.8-3.42-13.7-11.99l-.12-142.61c-.1-10.26 5.73-14.72 15.36-14.68zm42.76-66.55-266.68.15c-25.75-1.2-38.01 21.47-37.98 33.63l.33 232.18c-.57 24.86 18.85 37.38 37.02 37.26l268.8-.3c24.92.55 36.52-20.51 36.28-38.81l.08-226.5c.57-22-15.77-38.02-37.85-37.61m-70.98-146.17 88.53.24c14.53-25.4 24.89-58.69 24.91-88.42 2.64-70.8-56.89-176.4-174.97-177.29-92.98-.49-176.24 74.19-176.44 174.15.72 104.7 81.93 176.51 177.47 177.13l368.44-.25.6 43.41c-88.03 19.24-143.05 92.39-142.67 168.16 1.2 95.94 81.09 167.77 173.18 170.4 100.15-1.3 178.31-76.58 178.12-168.86.77-65.19-40.31-147.41-142.34-169.66l.03-43.12 127.83.43c18.89-.39 34.8-15.6 34.45-33.24.38-16.7-14.18-32.95-31.12-34.13l-563.44-.13c-61.39 1.77-113.76-45.92-114.2-108.53-1.12-56.77 46.09-109.79 110.47-109.43 62.42 1.21 110.24 53.48 107.75 111.72-3.2 41.66-17.72 63.22-46.6 87.42m450.69 296.73c0 58.33-48.81 105.62-109.03 105.62s-109.03-47.29-109.03-105.62 48.81-105.61 109.03-105.61 109.03 47.28 109.03 105.61" style="fill:#fff"/></svg>